HIERARCHY
ROOT hip
{
  OFFSET 0 0 0
  CHANNELS 6 Xposition Yposition Zposition Zrotation Yrotation Xrotation
  JOINT abdomen
  {
    OFFSET 0 20.6881 -0.73152
    CHANNELS 3 Zrotation Xrotation Yrotation
    JOINT chest
    {
      OFFSET 0 11.7043 -0.48768
      CHANNELS 3 Zrotation Xrotation Yrotation
      JOINT neck
      {
        OFFSET 0 22.1894 -2.19456
        CHANNELS 3 Zrotation Xrotation Yrotation
        JOINT head
        {
          OFFSET -0.24384 7.07133 1.2192
          CHANNELS 3 Zrotation Xrotation Yrotation
          JOINT leftEye
          {
            OFFSET 4.14528 8.04674 8.04672
            CHANNELS 3 Zrotation Xrotation Yrotation
            End Site
            {
              OFFSET 1 0 0
            }
          }
          JOINT rightEye
          {
            OFFSET -3.6576 8.04674 8.04672
            CHANNELS 3 Zrotation Xrotation Yrotation
            End Site
            {
              OFFSET 1 0 0
            }
          }
        }
      }
      JOINT rCollar
      {
        OFFSET -2.68224 19.2634 -4.8768
        CHANNELS 3 Zrotation Xrotation Yrotation
        JOINT rShldr
        {
          OFFSET -8.77824 -1.95073 1.46304
          CHANNELS 3 Zrotation Xrotation Yrotation
          JOINT rForeArm
          {
            OFFSET -28.1742 -1.7115 0.48768
            CHANNELS 3 Zrotation Xrotation Yrotation
            JOINT rHand
            {
              OFFSET -22.5879 0.773209 7.07136
              CHANNELS 3 Zrotation Xrotation Yrotation
              JOINT rThumb1
              {
                OFFSET -1.2192 -0.487915 3.41376
                CHANNELS 3 Zrotation Xrotation Yrotation
                JOINT rThumb2
                {
                  OFFSET -3.37035 -0.52449 3.41376
                  CHANNELS 3 Zrotation Xrotation Yrotation
                  End Site
                  {
                    OFFSET -1.78271 -1.18214 1.43049
                  }
                }
              }
              JOINT rIndex1
              {
                OFFSET -7.75947 0.938293 5.60832
                CHANNELS 3 Zrotation Xrotation Yrotation
                JOINT rIndex2
                {
                  OFFSET -2.54057 -0.884171 1.56538
                  CHANNELS 3 Zrotation Xrotation Yrotation
                  End Site
                  {
                    OFFSET -1.62519 -0.234802 1.16502
                  }
                }
              }
              JOINT rMid1
              {
                OFFSET -8.24714 1.18213 3.41376
                CHANNELS 3 Zrotation Xrotation Yrotation
                JOINT rMid2
                {
                  OFFSET -3.10165 -0.590103 1.0647
                  CHANNELS 3 Zrotation Xrotation Yrotation
                  End Site
                  {
                    OFFSET -2.48547 -0.328903 0.83742
                  }
                }
              }
              JOINT rRing1
              {
                OFFSET -8.82822 0.546677 1.51678
                CHANNELS 3 Zrotation Xrotation Yrotation
                JOINT rRing2
                {
                  OFFSET -2.60934 -0.819778 -0.0198488
                  CHANNELS 3 Zrotation Xrotation Yrotation
                  End Site
                  {
                    OFFSET -2.33842 -0.294052 0.168128
                  }
                }
              }
              JOINT rPinky1
              {
                OFFSET -8.27202 -0.0477905 -0.4584
                CHANNELS 3 Zrotation Xrotation Yrotation
                JOINT rPinky2
                {
                  OFFSET -1.82734 -0.647385 -0.700984
                  CHANNELS 3 Zrotation Xrotation Yrotation
                  End Site
                  {
                    OFFSET -1.69225 -0.51767 -0.607171
                  }
                }
              }
            }
          }
        }
      }
      JOINT lCollar
      {
        OFFSET 2.68224 19.2634 -4.8768
        CHANNELS 3 Zrotation Xrotation Yrotation
        JOINT lShldr
        {
          OFFSET 8.77824 -1.95073 1.46304
          CHANNELS 3 Zrotation Xrotation Yrotation
          JOINT lForeArm
          {
            OFFSET 28.1742 -1.7115 0.48768
            CHANNELS 3 Zrotation Xrotation Yrotation
            JOINT lHand
            {
              OFFSET 22.5879 0.773209 7.07136
              CHANNELS 3 Zrotation Xrotation Yrotation
              JOINT lThumb1
              {
                OFFSET 1.2192 -0.487915 3.41376
                CHANNELS 3 Zrotation Xrotation Yrotation
                JOINT lThumb2
                {
                  OFFSET 3.37035 -0.52449 3.41376
                  CHANNELS 3 Zrotation Xrotation Yrotation
                  End Site
                  {
                    OFFSET 1.78271 -1.18214 1.43049
                  }
                }
              }
              JOINT lIndex1
              {
                OFFSET 7.75947 0.938293 5.60832
                CHANNELS 3 Zrotation Xrotation Yrotation
                JOINT lIndex2
                {
                  OFFSET 2.54057 -0.884171 1.56538
                  CHANNELS 3 Zrotation Xrotation Yrotation
                  End Site
                  {
                    OFFSET 1.62519 -0.234802 1.16502
                  }
                }
              }
              JOINT lMid1
              {
                OFFSET 8.24714 1.18213 3.41376
                CHANNELS 3 Zrotation Xrotation Yrotation
                JOINT lMid2
                {
                  OFFSET 3.10165 -0.590103 1.0647
                  CHANNELS 3 Zrotation Xrotation Yrotation
                  End Site
                  {
                    OFFSET 2.48547 -0.328903 0.83742
                  }
                }
              }
              JOINT lRing1
              {
                OFFSET 8.82822 0.546677 1.51678
                CHANNELS 3 Zrotation Xrotation Yrotation
                JOINT lRing2
                {
                  OFFSET 2.60934 -0.819778 -0.0198488
                  CHANNELS 3 Zrotation Xrotation Yrotation
                  End Site
                  {
                    OFFSET 2.33842 -0.294052 0.168128
                  }
                }
              }
              JOINT lPinky1
              {
                OFFSET 8.27202 -0.0477905 -0.4584
                CHANNELS 3 Zrotation Xrotation Yrotation
                JOINT lPinky2
                {
                  OFFSET 1.82734 -0.647385 -0.700984
                  CHANNELS 3 Zrotation Xrotation Yrotation
                  End Site
                  {
                    OFFSET 1.69225 -0.51767 -0.607171
                  }
                }
              }
            }
          }
        }
      }
    }
  }
  JOINT rButtock
  {
    OFFSET -8.77824 4.35084 1.2192
    CHANNELS 3 Zrotation Xrotation Yrotation
    JOINT rThigh
    {
      OFFSET 0 -1.70687 -2.19456
      CHANNELS 3 Zrotation Xrotation Yrotation
      JOINT rShin
      {
        OFFSET 0 -36.8199 0.73152
        CHANNELS 3 Zrotation Xrotation Yrotation
        JOINT rFoot
        {
          OFFSET 0.73152 -45.1104 -5.12064
          CHANNELS 3 Zrotation Xrotation Yrotation
          End Site
          {
            OFFSET -1.1221 -3.69964 12.103
          }
        }
      }
    }
  }
  JOINT lButtock
  {
    OFFSET 8.77824 4.35084 1.2192
    CHANNELS 3 Zrotation Xrotation Yrotation
    JOINT lThigh
    {
      OFFSET 0 -1.70687 -2.19456
      CHANNELS 3 Zrotation Xrotation Yrotation
      JOINT lShin
      {
        OFFSET 0 -36.8199 0.73152
        CHANNELS 3 Zrotation Xrotation Yrotation
        JOINT lFoot
        {
          OFFSET -0.73152 -45.1104 -5.12064
          CHANNELS 3 Zrotation Xrotation Yrotation
          End Site
          {
            OFFSET 1.1221 -3.69964 12.103
          }
        }
      }
    }
  }
}
MOTION
Frames:	6
Frame Time:	0.00833333
-173.037 80.0014 -23.5776 -1.2011 61.6079 1069.34 -2.13145 6.70663 14.1233 -1.31049 -1.08704 3.9248 -1.73253 5.72502 -2.03 6.73419 -12.3516 -2.8109 -0.0 0.0 0.0 -0.0 0.0 0.0 1.30554e-13 -2.60043e-12 -2.84566e-13 48.2663 46.8606 37.4158 -13.787 -6.78018 25.1344 -0.000175759 -0.00629532 -0.000892762 -8.7351e-10 -2.41834e-10 9.78193e-10 -1.50981e-09 -4.16991e-10 1.69521e-09 -8.73512e-10 -2.41831e-10 9.78184e-10 7.73091 5.47488 0.417314 -8.73512e-10 -2.41832e-10 9.78194e-10 2.90554 0.965183 0.102902 -8.73506e-10 -2.4183e-10 9.78196e-10 10.2786 0.731801 0.0259123 -8.73509e-10 -2.41828e-10 9.78205e-10 2.22167 -0.733487 -0.20892 1.30486e-13 -2.60043e-12 -2.84764e-13 -38.155 16.0171 9.42458 25.2065 -21.5463 -53.7022 1.49375 -32.4766 5.13114 2.52337e-10 1.28577e-09 1.58419e-09 3.93881e-10 2.2495e-09 2.73485e-09 2.52334e-10 1.28578e-09 1.5842e-09 -7.73091 5.47488 -0.417314 2.52341e-10 1.28578e-09 1.58419e-09 -2.90554 0.965183 -0.102902 2.52334e-10 1.28578e-09 1.5842e-09 -10.2786 0.731801 -0.0259123 2.52335e-10 1.28578e-09 1.58419e-09 -2.22167 -0.733487 0.20892 -2.03217e-16 0.0 -3.88251e-19 -8.50311 -33.057 -11.0946 -1.17878 61.9047 1.72299 -1.76078 -11.5818 -4.47745 2.03217e-16 0.0 3.88251e-19 1.43992 -6.95471 17.6051 0.324697 42.8894 -1.04644 1.66531 -26.1462 2.29225
-171.444 80.1616 -23.4349 0.8071 61.2154 1069.96 -2.48158 5.85251 13.8916 -0.829621 -1.27213 3.87146 -1.85101 5.24384 -1.92118 6.39725 -10.6925 -2.65782 -0.0 0.0 0.0 -0.0 0.0 0.0 4.25428e-14 -1.68437e-12 -2.64697e-13 45.382 46.9947 40.8831 -13.6015 -6.63401 24.7628 -0.000219446 0.341298 0.0479587 -1.91973e-10 -4.94256e-10 1.70085e-09 -3.29912e-10 -8.52795e-10 2.94273e-09 -1.91975e-10 -4.94254e-10 1.70085e-09 7.73091 5.47488 0.417314 -1.91974e-10 -4.94254e-10 1.70086e-09 2.90554 0.965183 0.102902 -1.91971e-10 -4.94251e-10 1.70086e-09 10.2786 0.731801 0.0259123 -1.91973e-10 -4.94249e-10 1.70087e-09 2.22167 -0.733487 -0.20892 4.24994e-14 -1.68437e-12 -2.64877e-13 -34.6267 15.1078 7.71054 25.0318 -21.1651 -53.0651 1.39691 -31.5552 4.9498 -1.88659e-10 1.93902e-09 1.97315e-09 -3.75362e-10 3.37957e-09 3.39556e-09 -1.88665e-10 1.93903e-09 1.97317e-09 -7.73091 5.47488 -0.417314 -1.88658e-10 1.93903e-09 1.97316e-09 -2.90554 0.965183 -0.102902 -1.88664e-10 1.93903e-09 1.97316e-09 -10.2786 0.731801 -0.0259123 -1.88658e-10 1.93903e-09 1.97315e-09 -2.22167 -0.733487 0.20892 -2.03217e-16 0.0 -3.88251e-19 -10.8184 -31.7869 -12.3516 -0.909103 57.6795 1.46218 -2.54403 -14.4941 -6.23514 2.03217e-16 0.0 3.88251e-19 0.176022 -4.0466 18.2756 0.293503 41.4088 -1.01393 1.38472 -25.8027 1.74352
-169.889 80.3143 -23.2816 2.7272 60.8376 1070.57 -2.81941 4.92078 13.6212 -0.342914 -1.42341 3.80857 -1.92853 4.75885 -1.8097 6.10405 -9.18394 -2.4913 -0.0 0.0 0.0 -0.0 0.0 0.0 -6.61366e-14 -6.74457e-13 -2.8218e-13 42.4596 47.0647 44.3569 -13.4821 -6.54283 24.5203 -0.000432776 0.63294 0.0889537 6.54473e-10 -6.21869e-10 2.66173e-09 1.13532e-09 -1.07232e-09 4.60191e-09 6.5447e-10 -6.21867e-10 2.66172e-09 7.73091 5.47488 0.417314 6.54471e-10 -6.21867e-10 2.66173e-09 2.90554 0.965183 0.102902 6.54472e-10 -6.21863e-10 2.66173e-09 10.2786 0.731801 0.0259123 6.54472e-10 -6.21861e-10 2.66175e-09 2.22167 -0.733487 -0.20892 -6.61594e-14 -6.74448e-13 -2.82339e-13 -31.1848 14.3534 5.75341 24.8766 -20.8346 -52.5089 1.30703 -30.641 4.77444 -6.37634e-10 2.61741e-09 2.56627e-09 -1.1625e-09 4.55515e-09 4.40852e-09 -6.37642e-10 2.61742e-09 2.56628e-09 -7.73091 5.47488 -0.417314 -6.37635e-10 2.61742e-09 2.56627e-09 -2.90554 0.965183 -0.102902 -6.3764e-10 2.61741e-09 2.56627e-09 -10.2786 0.731801 -0.0259123 -6.3763e-10 2.61741e-09 2.56626e-09 -2.22167 -0.733487 0.20892 -2.03217e-16 0.0 -3.88251e-19 -12.8395 -30.5036 -13.1742 -0.696504 53.2345 1.25709 -3.55264 -17.5047 -8.1355 2.03217e-16 0.0 3.88251e-19 -1.17336 -1.21999 18.8136 0.265038 39.8815 -0.980151 1.22554 -25.3169 1.42573
-168.385 80.4328 -23.0933 4.3616 60.4159 1071.0 -2.9623 3.93005 13.387 0.0411165 -1.51195 3.75516 -1.9922 4.386 -1.68764 5.88961 -8.09525 -2.29031 -0.0 0.0 0.0 -0.0 0.0 0.0 -1.63793e-13 -2.14494e-13 -4.13373e-13 39.6543 46.9617 47.7313 -13.4315 -6.50468 24.4171 -0.000903719 0.858364 0.120644 1.45387e-09 -4.25848e-10 3.90752e-09 2.51924e-09 -7.31397e-10 6.75429e-09 1.45387e-09 -4.25845e-10 3.90751e-09 7.73091 5.47488 0.417314 1.45387e-09 -4.25846e-10 3.90752e-09 2.90554 0.965183 0.102902 1.45387e-09 -4.25841e-10 3.90752e-09 10.2786 0.731801 0.0259123 1.45387e-09 -4.25839e-10 3.90753e-09 2.22167 -0.733487 -0.20892 -1.63815e-13 -2.14484e-13 -4.13522e-13 -27.8609 13.6909 3.62964 24.7457 -20.5607 -52.0631 1.24037 -29.9217 4.63946 -9.35684e-10 3.21203e-09 3.56406e-09 -1.6979e-09 5.59135e-09 6.12315e-09 -9.35693e-10 3.21203e-09 3.56407e-09 -7.73091 5.47488 -0.417314 -9.35686e-10 3.21203e-09 3.56406e-09 -2.90554 0.965183 -0.102902 -9.35691e-10 3.21203e-09 3.56406e-09 -10.2786 0.731801 -0.0259123 -9.35678e-10 3.21203e-09 3.56405e-09 -2.22167 -0.733487 0.20892 -2.03217e-16 0.0 -3.88251e-19 -14.3437 -29.4279 -13.3146 -0.550964 49.3153 1.12224 -4.7464 -20.3655 -10.1048 2.03217e-16 0.0 3.88251e-19 -2.46845 1.43597 19.2659 0.240457 38.5004 -0.955073 1.21907 -24.9895 1.39859
-166.925 80.5286 -22.8628 5.5998 59.931 1071.13 -2.85957 2.8318 13.2417 0.29568 -1.5091 3.72766 -2.02993 4.16248 -1.54171 5.77145 -7.56393 -2.02516 -0.0 0.0 0.0 -0.0 0.0 0.0 -2.54729e-13 -6.98825e-13 -7.81324e-13 37.0025 46.6972 51.0093 -13.4627 -6.52829 24.4805 -0.00143563 1.01904 0.143233 2.27822e-09 4.05289e-10 5.94307e-09 3.94674e-09 7.09662e-10 1.02731e-08 2.27821e-09 4.05293e-10 5.94306e-09 7.73091 5.47488 0.417314 2.27822e-09 4.05292e-10 5.94307e-09 2.90554 0.965183 0.102902 2.27822e-09 4.05296e-10 5.94307e-09 10.2786 0.731801 0.0259123 2.27822e-09 4.05298e-10 5.94309e-09 2.22167 -0.733487 -0.20892 -2.54788e-13 -6.98815e-13 -7.81485e-13 -24.6182 13.1526 1.33341 24.6653 -20.3937 -51.8066 1.20174 -29.4917 4.55972 -9.6364e-10 3.81162e-09 5.50446e-09 -1.78772e-09 6.64843e-09 9.46982e-09 -9.63648e-10 3.81162e-09 5.50447e-09 -7.73091 5.47488 -0.417314 -9.63641e-10 3.81162e-09 5.50446e-09 -2.90554 0.965183 -0.102902 -9.63646e-10 3.81161e-09 5.50446e-09 -10.2786 0.731801 -0.0259123 -9.63634e-10 3.81161e-09 5.50445e-09 -2.22167 -0.733487 0.20892 -2.03217e-16 0.0 -3.88251e-19 -15.2641 -28.6222 -12.5997 -0.450183 46.0537 1.03427 -6.09857 -22.8856 -12.1789 2.03217e-16 0.0 3.88251e-19 -3.73871 3.93889 19.5829 0.217539 37.208 -0.936251 1.43065 -24.9009 1.79863
-165.501 80.6177 -22.5937 6.4006 59.3915 1070.89 -2.60771 1.63437 13.1362 0.478171 -1.43723 3.71214 -2.0344 4.02436 -1.3797 5.73358 -7.42454 -1.71291 -0.0 0.0 0.0 -0.0 0.0 0.0 -3.51595e-13 -1.70986e-12 -1.31108e-12 34.455 46.3209 54.206 -13.5706 -6.61187 24.6968 -0.00172728 1.11903 0.157292 3.19771e-09 1.67935e-09 8.57934e-09 5.53913e-09 2.91799e-09 1.48309e-08 3.1977e-09 1.67935e-09 8.57933e-09 7.73091 5.47488 0.417314 3.19771e-09 1.67935e-09 8.57935e-09 2.90554 0.965183 0.102902 3.19771e-09 1.67936e-09 8.57935e-09 10.2786 0.731801 0.0259123 3.19771e-09 1.67936e-09 8.57936e-09 2.22167 -0.733487 -0.20892 -3.51716e-13 -1.70986e-12 -1.31126e-12 -21.437 12.7514 -1.17333 24.6307 -20.3223 -51.6962 1.17858 -29.2362 4.51235 -8.31848e-10 4.43499e-09 8.11903e-09 -1.61643e-09 7.75516e-09 1.39831e-08 -8.31854e-10 4.43499e-09 8.11904e-09 -7.73091 5.47488 -0.417314 -8.31848e-10 4.43499e-09 8.11903e-09 -2.90554 0.965183 -0.102902 -8.31853e-10 4.43499e-09 8.11903e-09 -10.2786 0.731801 -0.0259123 -8.31843e-10 4.43499e-09 8.11902e-09 -2.22167 -0.733487 0.20892 -2.03217e-16 0.0 -3.88251e-19 -15.7836 -27.952 -11.225 -0.370772 43.0748 0.969001 -7.64264 -25.2198 -14.3971 2.03217e-16 0.0 3.88251e-19 -4.99702 6.33642 19.7549 0.195938 35.9379 -0.919556 1.82059 -24.8885 2.55203
